<?xml version="1.0" encoding="UTF-8"?>
<svg xmlns="http://www.w3.org/2000/svg" viewBox="0 0 192 192">
  <defs>
    <style>
      .cls-1 {
        font-family: Cindybob-Normal, Cindybob;
        font-size: 102px;
      }

      .cls-1, .cls-2 {
        fill: #231f20;
      }

      .cls-3 {
        fill: #242021;
      }
    </style>
  </defs>
  <g id="logo_Image" data-name="logo Image">
    <path class="cls-3" d="M130.87,7.91l4.31,12.12,11.36-3.24,4.47,13.4,10.78-.95-.94,10.77,13.38,4.48-3.23,11.38,11.88,4.31-6.49,9.19,10.17,6.84c.76,1.47.25,3.27-.8,4.45-1.45,1.64-7.49,3.92-6,6.49,1.03,1.5,8.09,7.37,8.38,8.42.21.8-7.74,7.78-8.37,9.3,0,.92,4.85,3.18,5.85,4.22,1.09,1.13,1.99,3.44.75,4.77l-9.46,6.36c-.25.16-.51.38-.51.7,0,.68,5.64,7.11,6.36,8.27l.13.71-11.97,4.09,3.34,11.73-13.39,4.35.92,10.75-10.76-.93-4.49,13.13c-.36.12-.71-.02-1.06-.08-2.8-.52-6.54-2.57-9.28-2.96-.34-.05-.71-.16-1.03.06l-4.31,11.88-8.99-6.71-6.96,10.3c-5.13,2.11-6.19-4.31-8.9-6.93l-8.88,8.59-9.54-8.63c-2.09-.14-3.67,3.64-4.82,5.04s-3.05,3.01-5.01,2.18c-1.35-.57-6.78-10.52-7.43-10.54l-8.99,6.71-4.31-11.88c-.32-.22-.69-.1-1.03-.06-2.73.39-6.48,2.44-9.28,2.96-.35.06-.69.21-1.06.08l-4.49-13.13-12.44.93.61-10.8-13.06-4.32,3.35-11.73-12.22-4.44,6.69-8.84-10.11-6.84c-3.07-4.85,7.35-7.29,7.02-10.43-.1-.95-7.88-7.7-8.85-9.15l8.59-9.11c-2.27-2.98-9.16-3.88-6.67-9.06l10.04-6.99-6.7-8.96,12.21-4.34-3.32-11.33,13.14-4.49-.7-10.76,12.45.94,4.48-13.39,11.36,3.24,4.31-12.12,8.96,6.7,7-10.04c2.18-1.41,4.22.05,5.57,1.82.69.9,2.47,5.04,3.48,4.83l9.11-8.57c2.49,2.39,4.9,4.86,7.35,7.29.96.95.95,2.01,2.73,1.3,2.91-1.17,4.41-9.5,9.35-6.67l7,10.04,8.96-6.7ZM95.82,18.04c-6.82.28-7.12,10.5-1.01,11.43,9.11,1.38,9.14-11.76,1.01-11.43ZM34.04,63.04c2.22-.15,3.82,2.19,4.89,3.86,1.17,1.82,3.54,6.92,3.46,8.98-.01.33-1.66,4.3-1.89,4.54l-13.36,7.01c-3.37,19.9,3.73,41.67,20.09,53.87h16.05c3.2,4.06,1.02,12.15,4.68,15.71,4.64,4.51,19.5,5.83,25.88,6,7.01.19,25.33-.79,30.34-5.87,3.75-3.8,1.59-11.58,4.79-15.83,7.4-.93,15.71,2.16,21.33-4.08,9.37-10.43,16.49-34.95,13.36-48.59-1.71-7.45-11.59-4.52-13.48-10.73-1.9-6.26,7.05-12.17,5.33-17.79-2.01-6.59-15.01-17.16-20.71-21.24-5.21-3.73-18.5-12.33-24.83-11.25-3.58.61-7.1,7.95-11.04,9.81-6.42,3.04-9.61-4.32-13.46-7.72-1.94-1.71-3.09-2.14-5.73-1.88-8.59.85-28.45,14.49-34.42,20.95-3.72,4.02-5.48,10.93-11.25,12.36l-.02,1.89ZM25.59,67.89c-5.33.92-5.36,9.69.2,10.47,8.6,1.2,8.37-11.94-.2-10.47ZM162.45,67.89c-5.43.92-5.55,9.36-.24,10.44,8.71,1.77,8.87-11.9.24-10.44ZM58.19,155.51c.66-1.37,1.57-6.21.54-7.26-.87-.89-5.72-.79-7.02-.54-.34.07-1.34.39-1.5.66l-.35,8.87,8.33-1.73ZM142.12,148.4c-6.67-2.53-11.22-.42-8.07,7.11l8.33,1.74-.26-8.85Z"/>
  </g>
  <g id="R">
    <text class="cls-1" transform="translate(64.32 102.6)"><tspan x="0" y="0">R</tspan></text>
    <path class="cls-2" d="M86.41,102.71c1.06,1.99,2.87,4.79,5.81,7.47,2.23,2.04,4.44,3.38,6.17,4.26v-13.56c-3.99.61-7.99,1.22-11.98,1.83Z"/>
  </g>
  <g id="B">
    <text class="cls-1" transform="translate(97.4 164.28)"><tspan x="0" y="0">B</tspan></text>
    <path class="cls-2" d="M105.04,88.22c-.37-.38-.94-.44-9.04-.44-.86,0-1.59,0-2.15,0l4.54,14.92c2.69-3.77,8.59-12.47,6.65-14.48Z"/>
  </g>
</svg>